<mxfile host="app.diagrams.net" modified="2022-06-24T01:39:41.751Z" agent="5.0 (Windows NT 10.0; Win64; x64) AppleWebKit/537.36 (KHTML, like Gecko) Chrome/102.0.0.0 Safari/537.36" etag="RXHpN3pxSWmQNdWRhEXg" version="20.0.3" type="github">
  <diagram id="zW2pCJTSdEGludU8chte" name="Page-1">
    <mxGraphModel dx="782" dy="428" grid="1" gridSize="10" guides="1" tooltips="1" connect="1" arrows="1" fold="1" page="1" pageScale="1" pageWidth="850" pageHeight="1100" math="0" shadow="0">
      <root>
        <mxCell id="0" />
        <mxCell id="1" parent="0" />
        <mxCell id="cp4vTjyROKh16KQ6q_Kq-1" value="" style="swimlane;startSize=0;" vertex="1" parent="1">
          <mxGeometry x="200" y="110" width="360" height="560" as="geometry" />
        </mxCell>
        <mxCell id="cp4vTjyROKh16KQ6q_Kq-2" value="Menu" style="rounded=0;whiteSpace=wrap;html=1;" vertex="1" parent="cp4vTjyROKh16KQ6q_Kq-1">
          <mxGeometry x="20" y="10" width="330" height="20" as="geometry" />
        </mxCell>
        <mxCell id="cp4vTjyROKh16KQ6q_Kq-3" value="Big image" style="rounded=1;whiteSpace=wrap;html=1;" vertex="1" parent="cp4vTjyROKh16KQ6q_Kq-1">
          <mxGeometry x="22.5" y="210" width="120" height="60" as="geometry" />
        </mxCell>
        <mxCell id="cp4vTjyROKh16KQ6q_Kq-7" value="item" style="rounded=0;whiteSpace=wrap;html=1;" vertex="1" parent="cp4vTjyROKh16KQ6q_Kq-1">
          <mxGeometry x="155" y="230" width="55" height="20" as="geometry" />
        </mxCell>
        <mxCell id="cp4vTjyROKh16KQ6q_Kq-9" value="&#xa;&lt;span style=&quot;color: rgb(0, 0, 0); font-family: Helvetica; font-size: 12px; font-style: normal; font-variant-ligatures: normal; font-variant-caps: normal; font-weight: 400; letter-spacing: normal; orphans: 2; text-align: center; text-indent: 0px; text-transform: none; widows: 2; word-spacing: 0px; -webkit-text-stroke-width: 0px; background-color: rgb(248, 249, 250); text-decoration-thickness: initial; text-decoration-style: initial; text-decoration-color: initial; float: none; display: inline !important;&quot;&gt;item&lt;/span&gt;&#xa;&#xa;" style="rounded=0;whiteSpace=wrap;html=1;" vertex="1" parent="cp4vTjyROKh16KQ6q_Kq-1">
          <mxGeometry x="222.5" y="230" width="55" height="20" as="geometry" />
        </mxCell>
        <mxCell id="cp4vTjyROKh16KQ6q_Kq-10" value="&#xa;&lt;span style=&quot;color: rgb(0, 0, 0); font-family: Helvetica; font-size: 12px; font-style: normal; font-variant-ligatures: normal; font-variant-caps: normal; font-weight: 400; letter-spacing: normal; orphans: 2; text-align: center; text-indent: 0px; text-transform: none; widows: 2; word-spacing: 0px; -webkit-text-stroke-width: 0px; background-color: rgb(248, 249, 250); text-decoration-thickness: initial; text-decoration-style: initial; text-decoration-color: initial; float: none; display: inline !important;&quot;&gt;item&lt;/span&gt;&#xa;&#xa;" style="rounded=0;whiteSpace=wrap;html=1;" vertex="1" parent="cp4vTjyROKh16KQ6q_Kq-1">
          <mxGeometry x="292.5" y="230" width="55" height="20" as="geometry" />
        </mxCell>
        <mxCell id="cp4vTjyROKh16KQ6q_Kq-17" value="Big image" style="rounded=1;whiteSpace=wrap;html=1;" vertex="1" parent="cp4vTjyROKh16KQ6q_Kq-1">
          <mxGeometry x="20" y="280" width="120" height="60" as="geometry" />
        </mxCell>
        <mxCell id="cp4vTjyROKh16KQ6q_Kq-18" value="&#xa;&lt;span style=&quot;color: rgb(0, 0, 0); font-family: Helvetica; font-size: 12px; font-style: normal; font-variant-ligatures: normal; font-variant-caps: normal; font-weight: 400; letter-spacing: normal; orphans: 2; text-align: center; text-indent: 0px; text-transform: none; widows: 2; word-spacing: 0px; -webkit-text-stroke-width: 0px; background-color: rgb(248, 249, 250); text-decoration-thickness: initial; text-decoration-style: initial; text-decoration-color: initial; float: none; display: inline !important;&quot;&gt;item&lt;/span&gt;&#xa;&#xa;" style="rounded=0;whiteSpace=wrap;html=1;" vertex="1" parent="cp4vTjyROKh16KQ6q_Kq-1">
          <mxGeometry x="152.5" y="300" width="55" height="20" as="geometry" />
        </mxCell>
        <mxCell id="cp4vTjyROKh16KQ6q_Kq-19" value="&#xa;&lt;span style=&quot;color: rgb(0, 0, 0); font-family: Helvetica; font-size: 12px; font-style: normal; font-variant-ligatures: normal; font-variant-caps: normal; font-weight: 400; letter-spacing: normal; orphans: 2; text-align: center; text-indent: 0px; text-transform: none; widows: 2; word-spacing: 0px; -webkit-text-stroke-width: 0px; background-color: rgb(248, 249, 250); text-decoration-thickness: initial; text-decoration-style: initial; text-decoration-color: initial; float: none; display: inline !important;&quot;&gt;item&lt;/span&gt;&#xa;&#xa;" style="rounded=0;whiteSpace=wrap;html=1;" vertex="1" parent="cp4vTjyROKh16KQ6q_Kq-1">
          <mxGeometry x="220" y="300" width="55" height="20" as="geometry" />
        </mxCell>
        <mxCell id="cp4vTjyROKh16KQ6q_Kq-20" value="&#xa;&lt;span style=&quot;color: rgb(0, 0, 0); font-family: Helvetica; font-size: 12px; font-style: normal; font-variant-ligatures: normal; font-variant-caps: normal; font-weight: 400; letter-spacing: normal; orphans: 2; text-align: center; text-indent: 0px; text-transform: none; widows: 2; word-spacing: 0px; -webkit-text-stroke-width: 0px; background-color: rgb(248, 249, 250); text-decoration-thickness: initial; text-decoration-style: initial; text-decoration-color: initial; float: none; display: inline !important;&quot;&gt;item&lt;/span&gt;&#xa;&#xa;" style="rounded=0;whiteSpace=wrap;html=1;" vertex="1" parent="cp4vTjyROKh16KQ6q_Kq-1">
          <mxGeometry x="290" y="300" width="55" height="20" as="geometry" />
        </mxCell>
        <mxCell id="cp4vTjyROKh16KQ6q_Kq-22" value="carousel" style="rounded=0;whiteSpace=wrap;html=1;" vertex="1" parent="cp4vTjyROKh16KQ6q_Kq-1">
          <mxGeometry x="20" y="40" width="330" height="160" as="geometry" />
        </mxCell>
      </root>
    </mxGraphModel>
  </diagram>
</mxfile>
